# xmcd
#
# Track frame offsets: 
#        150
#        31032
#        66237
#        107367
#        144909
#        193938
#        213894
#        250034
#
# Disc length: 3901 seconds
#
# Revision: 0
# Processed by: cddbd v1.5.2PL0 Copyright (c) Steve Scherf et al.
# Submitted via: ExactAudioCopyFreeDBPlugin 1.0
#
DISCID=650f3b08
DTITLE=Evadne - The Shortest Way
DYEAR=2012
DGENRE=Doom/Death Metal
TTITLE0=No Place For Hope
TTITLE1=Dreams In Monochrome
TTITLE2=This Complete Solitude
TTITLE3=One Last Dress For One Last Journey
TTITLE4=All I Will Leave Behind
TTITLE5=The Wanderer
TTITLE6=Further Away The Light
TTITLE7=Gloomy Garden
EXTD=
EXTT0=
EXTT1=
EXTT2=
EXTT3=
EXTT4=
EXTT5=
EXTT6=
EXTT7=
PLAYORDER=
